<svg xmlns="http://www.w3.org/2000/svg" width="114" height="40" viewBox="0 0 114 40" fill="none"><g clip-path="url(#clip0_241_864)"><path d="M40 0H0V40H40V0Z" fill="white"></path><path d="M19.9982 6L20.8491 15.1744L24.7865 6.8443L22.4482 15.7565L28.9972 9.27538L23.7518 16.8503L32.1226 13L24.6027 18.3241L33.7855 17.5689L24.8982 20L33.7855 22.4311L24.6027 21.6759L32.1226 27L23.7518 23.1497L28.9972 30.7246L22.4482 24.2435L24.7865 33.1557L20.8491 24.8256L19.9982 34L19.1473 24.8256L15.2099 33.1557L17.5482 24.2435L10.9992 30.7246L16.2446 23.1497L7.87389 27L15.3937 21.6759L6.21094 22.4311L15.0982 20L6.21094 17.5689L15.3937 18.3241L7.87389 13L16.2446 16.8503L10.9992 9.27538L17.5482 15.7565L15.2099 6.8443L19.1473 15.1744L19.9982 6Z" fill="#1C1B1F"></path></g><path d="M53.56 28V16H56.728V28H53.56ZM55.144 14.056C54.664 14.056 54.24 13.88 53.872 13.528C53.504 13.16 53.32 12.728 53.32 12.232C53.32 11.736 53.504 11.312 53.872 10.96C54.24 10.592 54.664 10.408 55.144 10.408C55.64 10.408 56.064 10.592 56.416 10.96C56.784 11.312 56.968 11.736 56.968 12.232C56.968 12.728 56.784 13.16 56.416 13.528C56.064 13.88 55.64 14.056 55.144 14.056ZM64.7453 28.288C63.8973 28.288 63.1053 28.184 62.3693 27.976C61.6333 27.768 60.9773 27.48 60.4013 27.112C59.8253 26.728 59.3453 26.304 58.9613 25.84C58.5933 25.376 58.3533 24.888 58.2413 24.376L61.4573 23.416C61.6653 23.96 62.0333 24.432 62.5613 24.832C63.0893 25.216 63.7533 25.416 64.5533 25.432C65.4013 25.448 66.0893 25.264 66.6173 24.88C67.1613 24.496 67.4333 24 67.4333 23.392C67.4333 22.864 67.2173 22.424 66.7853 22.072C66.3693 21.704 65.7933 21.424 65.0573 21.232L62.8733 20.656C62.0573 20.448 61.3373 20.136 60.7133 19.72C60.0893 19.288 59.6013 18.76 59.2493 18.136C58.8973 17.512 58.7213 16.784 58.7213 15.952C58.7213 14.368 59.2413 13.136 60.2812 12.256C61.3373 11.36 62.8253 10.912 64.7453 10.912C65.8173 10.912 66.7533 11.072 67.5533 11.392C68.3693 11.696 69.0493 12.136 69.5933 12.712C70.1373 13.288 70.5533 13.968 70.8412 14.752L67.6493 15.736C67.4573 15.192 67.1053 14.728 66.5933 14.344C66.0813 13.96 65.4333 13.768 64.6493 13.768C63.8493 13.768 63.2173 13.952 62.7533 14.32C62.3053 14.688 62.0813 15.208 62.0813 15.88C62.0813 16.408 62.2573 16.824 62.6093 17.128C62.9773 17.432 63.4733 17.664 64.0973 17.824L66.3053 18.376C67.7453 18.728 68.8653 19.36 69.6653 20.272C70.4653 21.184 70.8653 22.2 70.8653 23.32C70.8653 24.312 70.6253 25.184 70.1453 25.936C69.6653 26.672 68.9693 27.248 68.0573 27.664C67.1453 28.08 66.0413 28.288 64.7453 28.288ZM83.4594 28L87.4434 16H90.6594L86.5794 28H83.4594ZM75.4914 28L79.3314 16H82.0914L78.2994 28H75.4914ZM75.1794 28L71.0994 16H74.3154L78.1314 28H75.1794ZM83.4594 28L79.7154 16H82.4514L86.2674 28H83.4594ZM91.4584 28V16H94.6264V28H91.4584ZM93.0424 14.056C92.5624 14.056 92.1384 13.88 91.7704 13.528C91.4024 13.16 91.2184 12.728 91.2184 12.232C91.2184 11.736 91.4024 11.312 91.7704 10.96C92.1384 10.592 92.5624 10.408 93.0424 10.408C93.5384 10.408 93.9624 10.592 94.3144 10.96C94.6824 11.312 94.8664 11.736 94.8664 12.232C94.8664 12.728 94.6824 13.16 94.3144 13.528C93.9624 13.88 93.5384 14.056 93.0424 14.056ZM97.7477 28V14.8C97.7477 13.52 98.0757 12.528 98.7317 11.824C99.3877 11.104 100.388 10.744 101.732 10.744C102.196 10.744 102.684 10.824 103.196 10.984C103.724 11.144 104.204 11.336 104.636 11.56L103.46 13.84C103.204 13.712 102.972 13.616 102.764 13.552C102.556 13.488 102.364 13.456 102.188 13.456C101.756 13.456 101.436 13.608 101.228 13.912C101.02 14.2 100.916 14.672 100.916 15.328V28H97.7477ZM95.7557 18.544V16H103.868V18.544H95.7557ZM109.914 28.288C108.586 28.288 107.578 27.96 106.89 27.304C106.218 26.648 105.882 25.712 105.882 24.496V12.256H109.05V23.8C109.05 24.312 109.162 24.704 109.386 24.976C109.61 25.232 109.938 25.36 110.37 25.36C110.53 25.36 110.706 25.328 110.898 25.264C111.09 25.184 111.29 25.072 111.498 24.928L112.602 27.304C112.218 27.592 111.786 27.824 111.306 28C110.842 28.192 110.378 28.288 109.914 28.288ZM103.938 18.688V16H112.05V18.688H103.938Z" fill="white"></path><defs><clipPath id="clip0_241_864"><rect width="40" height="40" fill="white"></rect></clipPath></defs></svg>