<?xml version="1.0" encoding="UTF-8"?> <svg xmlns="http://www.w3.org/2000/svg" width="200" height="112" viewBox="0 0 200 112" fill="none"><mask id="mask0_473_131" style="mask-type:luminance" maskUnits="userSpaceOnUse" x="135" y="0" width="65" height="112"><path d="M135 0H200V112H135V0Z" fill="white"></path></mask><g mask="url(#mask0_473_131)"><mask id="mask1_473_131" style="mask-type:luminance" maskUnits="userSpaceOnUse" x="83" y="-15" width="140" height="140"><path d="M156.367 124.703L83.5781 58.7148L149.566 -14.0742L222.355 51.9141L156.367 124.703Z" fill="white"></path></mask><g mask="url(#mask1_473_131)"><mask id="mask2_473_131" style="mask-type:luminance" maskUnits="userSpaceOnUse" x="83" y="-15" width="140" height="140"><path d="M156.367 124.703L83.5781 58.7148L149.566 -14.0742L222.355 51.9141L156.367 124.703Z" fill="white"></path></mask><g mask="url(#mask2_473_131)"><path d="M141.215 110.968C153.289 109.121 164.836 103.25 173.684 93.4919C194.145 70.9216 192.441 36.031 169.863 15.5622C160.098 6.71069 148.035 2.01147 135.82 1.35522C151.676 -1.08619 168.465 3.38647 181.281 15.0115C203.852 35.4724 205.57 70.363 185.102 92.9412C173.488 105.754 157.223 111.84 141.215 110.968Z" fill="#C19B65"></path></g></g></g><path d="M0.573242 76.5C1.72949 76.4688 2.5498 76.2109 3.04199 75.7188C3.53027 75.2188 3.80761 74.6367 3.87011 73.9688C3.94042 73.293 3.97949 72.1172 3.97949 70.4375V49.1719C3.97949 47.789 4.02636 46.6055 4.12011 45.625L0.573242 45.8125V43.6562H11.667V45.2812C10.5107 45.3125 9.68652 45.5742 9.19824 46.0625C8.70605 46.5547 8.4248 47.1367 8.35449 47.8125C8.29199 48.4922 8.26074 49.664 8.26074 51.3281V72.4688C8.26074 74.168 8.21386 75.4453 8.12011 76.2969L17.3232 76.1562C19.4248 76.125 20.999 75.4648 22.042 74.1719C23.0928 72.8711 23.6201 70.793 23.6201 67.9375H25.3076L25.0107 78.125H0.573242V76.5Z" fill="#C19B65"></path><path d="M48.7915 78.9062C45.311 78.9062 42.561 78.2891 40.5415 77.0625C38.5181 75.8359 37.0728 73.9492 36.1978 71.4062C35.3306 68.8555 34.9009 65.4961 34.9009 61.3281V51.3281C34.9009 49.2344 34.9673 47.3359 35.104 45.625L31.5571 45.7656V43.6562H42.5884V45.2812C41.1392 45.2812 40.2173 45.664 39.8228 46.4219C39.4243 47.1719 39.229 48.0898 39.229 49.1719V61.5781C39.229 64.4336 39.4829 66.9023 39.9946 68.9844C40.5024 71.0703 41.5024 72.7773 42.9946 74.1094C44.4946 75.4453 46.6392 76.1094 49.4321 76.1094C52.8462 76.1094 55.3853 74.9375 57.0415 72.5938C58.6978 70.2422 59.5571 67.043 59.6196 63L59.7759 49.1719C59.7759 47.789 59.8228 46.6055 59.9165 45.625L56.4165 45.8125V43.6562H65.5884V45.2812C64.4009 45.3125 63.561 45.5742 63.0728 46.0625C62.5806 46.5547 62.2993 47.1367 62.229 47.8125C62.1665 48.4922 62.1353 49.664 62.1353 51.3281L62.0415 62.7656C62.0103 67.5273 60.9478 71.4062 58.854 74.4062C56.7681 77.4062 53.4165 78.9062 48.7915 78.9062Z" fill="#C19B65"></path><path d="M79.0312 50.2031H78.9688L79.125 71.2812C79.125 73.4805 79.0938 75.1055 79.0312 76.1562L82.5625 75.9531V78.125H73.5625V76.5C74.875 76.5 75.7422 76.125 76.1719 75.375C76.5977 74.6172 76.8125 73.6953 76.8125 72.6094L76.8594 45.625L73.5625 45.8125V43.6562H79.4219L100.391 71.7188H100.453L100.5 49.1719C100.5 47.789 100.547 46.6055 100.641 45.625L97.0938 45.8125V43.6562H106.156V45.2812C105.176 45.3125 104.445 45.5 103.969 45.8438C103.488 46.1875 103.18 46.6562 103.047 47.25C102.922 47.8359 102.859 48.6211 102.859 49.6094V51.3281L102.766 78.9062H100.391L79.0312 50.2031Z" fill="#C19B65"></path><path d="M114.669 76.5C115.826 76.4688 116.646 76.2109 117.138 75.7188C117.626 75.2188 117.904 74.6367 117.966 73.9688C118.037 73.293 118.076 72.1172 118.076 70.4375V49.1719C118.076 47.789 118.123 46.6055 118.216 45.625L114.669 45.8125V43.6562H138.357L138.607 52.2656H136.982C136.982 49.5781 136.396 47.7461 135.232 46.7656C134.064 45.7773 132.435 45.3125 130.341 45.375L126.107 45.4688C124.919 45.5 124.06 45.7265 123.529 46.1406C123.005 46.5469 122.677 47.1211 122.544 47.8594C122.419 48.6015 122.357 49.7578 122.357 51.3281V59.2188L131.623 59.2656L131.279 55.0312H133.435V65.375H131.81C131.81 64.1562 131.662 63.2305 131.373 62.5938C131.08 61.9492 130.626 61.5234 130.013 61.3125C129.408 61.0938 128.564 60.9844 127.482 60.9844L125.951 61.0312L122.357 61.1875V72.4688C122.357 74.168 122.31 75.4453 122.216 76.2969L131.623 76.1562C133.912 76.125 135.669 75.543 136.888 74.4062C138.107 73.2734 138.716 71.3086 138.716 68.5156H140.388L140.091 78.125H114.669V76.5Z" fill="#C19B65"></path><path d="M145.992 76.5C146.812 76.5 147.468 76.3125 147.96 75.9375C148.449 75.5547 148.851 75.0586 149.164 74.4531C149.476 73.8515 149.843 72.9375 150.273 71.7188L150.773 70.3438L160.914 42.7188H162.101L173.085 70.7344C173.437 71.6211 173.746 72.5859 174.007 73.625C174.277 74.6562 174.398 75.5 174.367 76.1562L177.71 75.9531V78.125H166.429V76.5C168.367 76.4688 169.335 75.6836 169.335 74.1406C169.335 73.5156 169.171 72.7461 168.851 71.8281L167.117 67.1875L154.32 67.4844C153.82 68.8281 153.242 70.5859 152.585 72.75C152.261 73.8359 151.855 74.9688 151.367 76.1562L155.21 75.9531V78.125H145.992V76.5ZM166.429 65.375L162.929 55.9688L160.726 49.9062H160.617L158.554 55.4688L155.898 62.9531L155.054 65.375H166.429Z" fill="#C19B65"></path><path d="M56.2412 97.1523C55.999 97.1523 55.7568 97.1133 55.5068 97.043C55.2568 96.9805 55.0381 96.8828 54.8506 96.7461L54.8818 97.0898H54.4756L54.4287 95.418H54.7412C54.7607 95.8672 54.9131 96.2148 55.1943 96.4648C55.4834 96.707 55.8428 96.8242 56.2725 96.8242C56.5928 96.8242 56.8662 96.7383 57.085 96.5586C57.3037 96.3828 57.4131 96.1445 57.4131 95.8398C57.4131 95.6133 57.3506 95.418 57.2256 95.2617C57.1006 95.1055 56.9443 94.9766 56.7568 94.8711C56.5771 94.7578 56.3389 94.6328 56.0381 94.4961C55.6826 94.3203 55.4014 94.168 55.1943 94.043C54.9834 93.918 54.8076 93.7578 54.6631 93.5586C54.5146 93.3516 54.4443 93.0898 54.4443 92.7773C54.4443 92.5703 54.4912 92.3633 54.585 92.1523C54.6865 91.9453 54.8584 91.7695 55.1006 91.6211C55.3389 91.4766 55.6514 91.4023 56.0381 91.4023C56.2764 91.4023 56.5146 91.4336 56.7568 91.4961C56.9951 91.5508 57.2139 91.6523 57.4131 91.8086L57.3818 91.4648H57.7725V93.1992H57.4912C57.4678 92.7852 57.3389 92.4336 57.1006 92.1523C56.8584 91.8633 56.5264 91.7148 56.1006 91.7148C55.7881 91.7148 55.5381 91.8047 55.3506 91.9805C55.1709 92.1602 55.085 92.3789 55.085 92.6367C55.085 92.8477 55.1475 93.0273 55.2725 93.1836C55.3975 93.332 55.542 93.457 55.71 93.5586C55.8857 93.6523 56.1318 93.7734 56.4443 93.918C56.7959 94.0859 57.085 94.2383 57.3037 94.3711C57.5225 94.4961 57.7021 94.668 57.8506 94.8867C58.0068 95.0977 58.085 95.3516 58.085 95.6523C58.085 95.957 58.0107 96.2227 57.8662 96.4492C57.7178 96.668 57.5068 96.8398 57.2256 96.9648C56.9521 97.0898 56.624 97.1523 56.2412 97.1523Z" fill="#C19B65"></path><path d="M60.8467 97.1523C60.1279 97.1523 59.7686 96.668 59.7686 95.6992L59.7842 93.4336H59.1904V93.0898C59.4404 93.0898 59.6475 92.9805 59.8154 92.7617C59.9912 92.5352 60.1201 92.2773 60.2061 91.9961H60.4873V93.0898H61.7998V93.4023L60.4873 93.418C60.4756 94.2227 60.4717 94.7773 60.4717 95.0898C60.4717 95.3945 60.4717 95.5664 60.4717 95.6055C60.4717 95.9805 60.5107 96.2578 60.5967 96.4336C60.6904 96.6133 60.8467 96.6992 61.0654 96.6992C61.1982 96.6992 61.335 96.6602 61.4717 96.5742C61.6045 96.4922 61.7217 96.3789 61.8154 96.2305L62.0342 96.4023C61.8232 96.707 61.6201 96.9102 61.4248 97.0117C61.2256 97.1055 61.0342 97.1523 60.8467 97.1523Z" fill="#C19B65"></path><path d="M64.1006 97.1523C63.7139 97.1523 63.417 97.0664 63.21 96.9023C63.0107 96.7266 62.9131 96.4961 62.9131 96.2148C62.9131 95.9141 63.0303 95.6602 63.2725 95.4492C63.5225 95.2422 63.8271 95.0859 64.1943 94.9805C64.5693 94.8789 64.9443 94.832 65.3193 94.8398V94.3398C65.3193 94.0078 65.2646 93.7461 65.1631 93.5586C65.0576 93.3633 64.8428 93.2617 64.5225 93.2617C64.3662 93.2617 64.21 93.3008 64.0537 93.3711C63.9053 93.4336 63.8037 93.5352 63.7412 93.668C63.8037 93.7422 63.835 93.8398 63.835 93.9648C63.835 94.0508 63.8037 94.1289 63.7412 94.1992C63.6865 94.2617 63.6084 94.293 63.5068 94.293C63.3896 94.293 63.3037 94.2617 63.2412 94.1992C63.1787 94.1289 63.1475 94.0352 63.1475 93.918C63.1475 93.7422 63.2139 93.5859 63.3506 93.4492C63.4834 93.3047 63.6709 93.1914 63.9131 93.1055C64.1514 93.0117 64.417 92.9648 64.71 92.9648C65.1475 92.9648 65.4678 93.0859 65.6787 93.3242C65.8857 93.5547 65.9912 93.9258 65.9912 94.4336L65.9756 96.1992C65.9756 96.3672 65.9639 96.543 65.9443 96.7305L66.5068 96.6992V97.0273H65.3818C65.3701 96.9453 65.3545 96.793 65.335 96.5742C64.9482 96.9609 64.5381 97.1523 64.1006 97.1523ZM64.2725 96.6992C64.4678 96.6992 64.6475 96.6641 64.8037 96.5898C64.9678 96.5195 65.1396 96.4023 65.3193 96.2461C65.3076 96.1641 65.3037 96.0273 65.3037 95.8398L65.3193 95.1055C64.8818 95.1172 64.4951 95.207 64.1631 95.3711C63.8271 95.5273 63.6631 95.7734 63.6631 96.1055C63.6631 96.293 63.7178 96.4414 63.835 96.543C63.9482 96.6484 64.0928 96.6992 64.2725 96.6992Z" fill="#C19B65"></path><path d="M67.6338 96.793C67.79 96.793 67.8994 96.7578 67.9619 96.6836C68.0244 96.6016 68.0596 96.5039 68.0713 96.3867C68.0908 96.2734 68.1025 96.0898 68.1025 95.8398V94.043C68.1025 93.8242 68.1103 93.6523 68.1338 93.5273L67.5713 93.5586V93.2305H67.8213C68.0166 93.2305 68.1572 93.2148 68.2432 93.1836C68.3369 93.1523 68.4189 93.0977 68.4932 93.0117H68.7275C68.7471 93.2227 68.7627 93.4805 68.7744 93.793C68.8994 93.5859 69.0791 93.3984 69.3213 93.2305C69.5713 93.0547 69.8252 92.9648 70.0869 92.9648C70.2432 92.9648 70.3721 93.0117 70.4775 93.1055C70.5791 93.1914 70.6338 93.3086 70.6338 93.4648C70.6338 93.5508 70.6025 93.6328 70.54 93.7148C70.4775 93.8008 70.3838 93.8398 70.2588 93.8398C70.1416 93.8398 70.0478 93.8008 69.9775 93.7148C69.9033 93.6328 69.8721 93.5273 69.8838 93.4023C69.6846 93.4023 69.4853 93.4805 69.29 93.6367C69.0908 93.793 68.9189 94.0039 68.7744 94.2617L68.79 96.1992C68.79 96.4297 68.7783 96.6055 68.7588 96.7305L69.2432 96.6992V97.0273H67.6338V96.793Z" fill="#C19B65"></path><path d="M71.5464 96.793C71.7026 96.793 71.812 96.7578 71.8745 96.6836C71.937 96.6016 71.9722 96.5039 71.9839 96.3867C72.0034 96.2734 72.0151 96.0898 72.0151 95.8398V92.1211C72.0151 91.9258 72.019 91.7539 72.0308 91.6055L71.4839 91.6367V91.3086C71.7964 91.3086 72.0151 91.293 72.1401 91.2617C72.2729 91.2227 72.3784 91.1641 72.4526 91.0898H72.687L72.7026 96.1992C72.7026 96.3984 72.687 96.5742 72.6558 96.7305L73.1558 96.6992V97.0273H71.5464V96.793Z" fill="#C19B65"></path><path d="M75.1313 92.2461C75.0142 92.2461 74.9165 92.1992 74.8345 92.1055C74.7485 92.0117 74.7095 91.9023 74.7095 91.7773C74.7095 91.6523 74.7485 91.543 74.8345 91.4492C74.9282 91.3555 75.0259 91.3086 75.1313 91.3086C75.2563 91.3086 75.3579 91.3555 75.4438 91.4492C75.5259 91.5352 75.5688 91.6445 75.5688 91.7773C75.5688 91.9023 75.522 92.0117 75.4282 92.1055C75.3423 92.1992 75.2446 92.2461 75.1313 92.2461ZM74.3501 96.793C74.5063 96.793 74.6157 96.7578 74.6782 96.6836C74.7407 96.6016 74.7759 96.5039 74.7876 96.3867C74.8071 96.2734 74.8188 96.0898 74.8188 95.8398V94.043C74.8188 93.8867 74.8267 93.7148 74.8501 93.5273L74.2876 93.5586V93.2305C74.6001 93.2305 74.8188 93.2148 74.9438 93.1836C75.0767 93.1445 75.1821 93.0859 75.2563 93.0117H75.4907V96.1992C75.4907 96.4297 75.479 96.6055 75.4595 96.7305L75.9595 96.6992V97.0273H74.3501V96.793Z" fill="#C19B65"></path><path d="M79.0376 99.1523C78.5884 99.1523 78.2173 99.0977 77.9282 98.9961C77.6353 98.9023 77.4204 98.7695 77.2876 98.6055C77.1509 98.4492 77.0845 98.2773 77.0845 98.0898C77.0845 97.8711 77.1548 97.6758 77.3032 97.5117C77.4478 97.3555 77.6157 97.2344 77.8032 97.1523C77.6235 97.0977 77.4907 97.0234 77.397 96.918C77.3032 96.8164 77.2563 96.6836 77.2563 96.5273C77.2563 96.3398 77.3267 96.168 77.4751 96.0117C77.6313 95.8555 77.8188 95.7617 78.0376 95.7305C77.7954 95.6055 77.604 95.4453 77.4595 95.2461C77.3228 95.0391 77.2563 94.8008 77.2563 94.5273C77.2563 94.2266 77.3345 93.9609 77.4907 93.7305C77.647 93.4922 77.8501 93.3047 78.1001 93.168C78.3579 93.0352 78.6313 92.9648 78.9126 92.9648C79.2642 92.9648 79.6001 93.0664 79.9126 93.2617C79.9829 93.0352 80.1079 92.8516 80.2876 92.7148C80.4634 92.5703 80.6548 92.4961 80.8657 92.4961C80.9907 92.4961 81.0884 92.5352 81.1626 92.6055C81.2329 92.6797 81.272 92.7734 81.272 92.8867C81.272 92.9609 81.2446 93.0352 81.1938 93.1055C81.1392 93.1797 81.061 93.2148 80.9595 93.2148C80.8657 93.2148 80.7876 93.1914 80.7251 93.1367C80.6626 93.0859 80.6196 93.0195 80.6001 92.9336C80.4751 92.957 80.3735 93.0195 80.3032 93.1211C80.229 93.2148 80.1782 93.332 80.147 93.4648C80.2798 93.582 80.3853 93.7227 80.4595 93.8867C80.5298 94.043 80.5688 94.2109 80.5688 94.3867C80.5688 94.6797 80.4907 94.9414 80.3345 95.168C80.186 95.3984 79.9829 95.582 79.7251 95.7148C79.4751 95.8516 79.2017 95.918 78.9126 95.918C78.8384 95.918 78.7485 95.9141 78.647 95.9023C78.5728 95.8828 78.4829 95.8711 78.3813 95.8711C78.2134 95.8711 78.0688 95.9141 77.9438 95.9961C77.8267 96.0703 77.772 96.1602 77.772 96.2617C77.772 96.418 77.8657 96.5234 78.0532 96.5742C78.2485 96.6172 78.5767 96.6484 79.0376 96.668C79.6821 96.6992 80.1665 96.8047 80.4907 96.9805C80.811 97.1563 80.9751 97.4414 80.9751 97.8398C80.9751 98.1094 80.8813 98.3438 80.6938 98.543C80.5063 98.7383 80.2603 98.8906 79.9595 98.9961C79.6665 99.0977 79.3579 99.1523 79.0376 99.1523ZM78.9282 95.6211C79.2095 95.6211 79.4204 95.5234 79.5688 95.3242C79.7251 95.1289 79.8032 94.8711 79.8032 94.5586C79.8032 94.1836 79.7173 93.8711 79.5532 93.6211C79.397 93.3711 79.1782 93.2461 78.897 93.2461C78.6157 93.2461 78.397 93.3516 78.2407 93.5586C78.0845 93.7695 78.0063 94.0352 78.0063 94.3555C78.0063 94.7422 78.0884 95.0508 78.2563 95.2773C78.4204 95.5078 78.647 95.6211 78.9282 95.6211ZM79.0376 98.8555C79.3267 98.8555 79.5767 98.8125 79.7876 98.7305C80.0063 98.6563 80.1704 98.5508 80.2876 98.418C80.4009 98.293 80.4595 98.1563 80.4595 98.0117C80.4595 97.7383 80.3345 97.5508 80.0845 97.4492C79.8345 97.3555 79.4595 97.3008 78.9595 97.293C78.6235 97.2813 78.354 97.2617 78.147 97.2305C77.9985 97.3242 77.8853 97.4375 77.8032 97.5742C77.729 97.707 77.6938 97.8477 77.6938 97.9961C77.6938 98.2539 77.811 98.4648 78.0532 98.6211C78.3032 98.7773 78.6313 98.8555 79.0376 98.8555Z" fill="#C19B65"></path><path d="M82.002 96.793C82.1582 96.793 82.2676 96.7578 82.3301 96.6836C82.4004 96.6016 82.4434 96.5039 82.4551 96.3867C82.4629 96.2617 82.4707 96.082 82.4707 95.8398V92.1211C82.4707 91.9258 82.4785 91.7539 82.502 91.6055L81.9395 91.6367V91.3086C82.252 91.3086 82.4746 91.293 82.6113 91.2617C82.7441 91.2227 82.8496 91.1641 82.9238 91.0898H83.1582V93.4961C83.334 93.3398 83.5371 93.2148 83.7676 93.1211C83.9941 93.0195 84.2207 92.9648 84.4395 92.9648C84.8848 92.9648 85.2129 93.1133 85.4238 93.4023C85.6309 93.6836 85.7363 94.1289 85.7363 94.7305L85.752 96.1992C85.752 96.4297 85.7402 96.6055 85.7207 96.7305L86.2051 96.6992V97.0273H84.6113V96.793C84.7559 96.793 84.8613 96.7578 84.9238 96.6836C84.9941 96.6016 85.0371 96.5039 85.0488 96.3867C85.0566 96.2734 85.0645 96.0898 85.0645 95.8398V94.7305C85.0645 94.2852 84.9902 93.9492 84.8457 93.7305C84.709 93.5039 84.4902 93.3867 84.1895 93.3867C83.9902 93.3867 83.7988 93.4336 83.6113 93.5273C83.4238 93.6211 83.2715 93.7383 83.1582 93.8711V96.1992C83.1582 96.3984 83.1426 96.5742 83.1113 96.7305L83.6113 96.6992V97.0273H82.002V96.793Z" fill="#C19B65"></path><path d="M88.8589 97.1523C88.1401 97.1523 87.7808 96.668 87.7808 95.6992L87.7964 93.4336H87.2026V93.0898C87.4526 93.0898 87.6597 92.9805 87.8276 92.7617C88.0034 92.5352 88.1323 92.2773 88.2183 91.9961H88.4995V93.0898H89.812V93.4023L88.4995 93.418C88.4878 94.2227 88.4839 94.7773 88.4839 95.0898C88.4839 95.3945 88.4839 95.5664 88.4839 95.6055C88.4839 95.9805 88.5229 96.2578 88.6089 96.4336C88.7026 96.6133 88.8589 96.6992 89.0776 96.6992C89.2104 96.6992 89.3472 96.6602 89.4839 96.5742C89.6167 96.4922 89.7339 96.3789 89.8276 96.2305L90.0464 96.4023C89.8354 96.707 89.6323 96.9102 89.437 97.0117C89.2378 97.1055 89.0464 97.1523 88.8589 97.1523Z" fill="#C19B65"></path><path d="M94.1431 92.918L94.0337 92.6211C93.9087 92.2266 93.8345 91.9727 93.8149 91.8555L93.3774 91.8711V91.5273H95.2837V91.7773C95.0649 91.8008 94.9087 91.8398 94.8149 91.9023C94.729 91.957 94.6899 92.0508 94.6899 92.1836C94.6899 92.3086 94.7134 92.4609 94.7681 92.6367C94.8618 92.9922 94.9868 93.3867 95.1431 93.8242C95.1743 93.8984 95.2056 93.9922 95.2368 94.1055C95.2759 94.2109 95.3189 94.3359 95.3618 94.4805C95.3931 94.5859 95.4282 94.707 95.4712 94.8398C95.522 94.9648 95.5571 95.0586 95.5806 95.1211C95.6821 95.4023 95.7603 95.6289 95.8149 95.793H95.8306C95.9439 95.4414 96.0532 95.0977 96.1587 94.7617C96.3462 94.1484 96.5532 93.5039 96.7837 92.8242C97.0103 92.1172 97.1509 91.6797 97.2056 91.5117H97.4556C97.5181 91.7305 97.6196 92.0703 97.7681 92.5273C97.9243 92.9883 98.0376 93.3164 98.1118 93.5117C98.2681 93.9609 98.3696 94.2852 98.4243 94.4805C98.4634 94.6172 98.5376 94.8242 98.6431 95.1055C98.7446 95.4102 98.8306 95.668 98.8931 95.8867H98.9087C99.0337 95.4805 99.1431 95.1445 99.2368 94.8711C99.4946 94.1133 99.7134 93.457 99.8931 92.9023C99.9439 92.7148 99.9946 92.5547 100.049 92.418C100.143 92.1602 100.221 91.9727 100.284 91.8555L99.6587 91.8711V91.5273H101.252V91.7773C101.065 91.8086 100.917 91.8555 100.815 91.918C100.721 91.9727 100.635 92.0703 100.565 92.2148C100.491 92.3633 100.397 92.6055 100.284 92.9492L99.8774 94.1367C99.4595 95.418 99.1196 96.4102 98.8618 97.1055H98.6274L97.1587 92.9023L95.7681 97.1055H95.5493L94.1431 92.918Z" fill="#C19B65"></path><path d="M102.845 92.2461C102.728 92.2461 102.63 92.1992 102.548 92.1055C102.462 92.0117 102.423 91.9023 102.423 91.7773C102.423 91.6523 102.462 91.543 102.548 91.4492C102.642 91.3555 102.74 91.3086 102.845 91.3086C102.97 91.3086 103.072 91.3555 103.158 91.4492C103.24 91.5352 103.283 91.6445 103.283 91.7773C103.283 91.9023 103.236 92.0117 103.142 92.1055C103.056 92.1992 102.958 92.2461 102.845 92.2461ZM102.064 96.793C102.22 96.793 102.33 96.7578 102.392 96.6836C102.455 96.6016 102.49 96.5039 102.501 96.3867C102.521 96.2734 102.533 96.0898 102.533 95.8398V94.043C102.533 93.8867 102.541 93.7148 102.564 93.5273L102.001 93.5586V93.2305C102.314 93.2305 102.533 93.2148 102.658 93.1836C102.791 93.1445 102.896 93.0859 102.97 93.0117H103.205V96.1992C103.205 96.4297 103.193 96.6055 103.173 96.7305L103.673 96.6992V97.0273H102.064V96.793Z" fill="#C19B65"></path><path d="M106.345 97.1523C105.626 97.1523 105.267 96.668 105.267 95.6992L105.282 93.4336H104.688V93.0898C104.938 93.0898 105.146 92.9805 105.313 92.7617C105.489 92.5352 105.618 92.2773 105.704 91.9961H105.985V93.0898H107.298V93.4023L105.985 93.418C105.974 94.2227 105.97 94.7773 105.97 95.0898C105.97 95.3945 105.97 95.5664 105.97 95.6055C105.97 95.9805 106.009 96.2578 106.095 96.4336C106.188 96.6133 106.345 96.6992 106.563 96.6992C106.696 96.6992 106.833 96.6602 106.97 96.5742C107.103 96.4922 107.22 96.3789 107.313 96.2305L107.532 96.4023C107.321 96.707 107.118 96.9102 106.923 97.0117C106.724 97.1055 106.532 97.1523 106.345 97.1523Z" fill="#C19B65"></path><path d="M108.412 96.793C108.568 96.793 108.677 96.7578 108.74 96.6836C108.81 96.6016 108.853 96.5039 108.865 96.3867C108.873 96.2617 108.88 96.082 108.88 95.8398V92.1211C108.88 91.9258 108.888 91.7539 108.912 91.6055L108.349 91.6367V91.3086C108.662 91.3086 108.884 91.293 109.021 91.2617C109.154 91.2227 109.259 91.1641 109.333 91.0898H109.568V93.4961C109.744 93.3398 109.947 93.2148 110.177 93.1211C110.404 93.0195 110.63 92.9648 110.849 92.9648C111.294 92.9648 111.623 93.1133 111.833 93.4023C112.041 93.6836 112.146 94.1289 112.146 94.7305L112.162 96.1992C112.162 96.4297 112.15 96.6055 112.13 96.7305L112.615 96.6992V97.0273H111.021V96.793C111.166 96.793 111.271 96.7578 111.333 96.6836C111.404 96.6016 111.447 96.5039 111.458 96.3867C111.466 96.2734 111.474 96.0898 111.474 95.8398V94.7305C111.474 94.2852 111.4 93.9492 111.255 93.7305C111.119 93.5039 110.9 93.3867 110.599 93.3867C110.4 93.3867 110.208 93.4336 110.021 93.5273C109.833 93.6211 109.681 93.7383 109.568 93.8711V96.1992C109.568 96.3984 109.552 96.5742 109.521 96.7305L110.021 96.6992V97.0273H108.412V96.793Z" fill="#C19B65"></path><path d="M114.565 92.2461C114.448 92.2461 114.351 92.1992 114.269 92.1055C114.183 92.0117 114.144 91.9023 114.144 91.7773C114.144 91.6523 114.183 91.543 114.269 91.4492C114.362 91.3555 114.46 91.3086 114.565 91.3086C114.69 91.3086 114.792 91.3555 114.878 91.4492C114.96 91.5352 115.003 91.6445 115.003 91.7773C115.003 91.9023 114.956 92.0117 114.862 92.1055C114.776 92.1992 114.679 92.2461 114.565 92.2461ZM113.784 96.793C113.94 96.793 114.05 96.7578 114.112 96.6836C114.175 96.6016 114.21 96.5039 114.222 96.3867C114.241 96.2734 114.253 96.0898 114.253 95.8398V94.043C114.253 93.8867 114.261 93.7148 114.284 93.5273L113.722 93.5586V93.2305C114.034 93.2305 114.253 93.2148 114.378 93.1836C114.511 93.1445 114.616 93.0859 114.69 93.0117H114.925V96.1992C114.925 96.4297 114.913 96.6055 114.894 96.7305L115.394 96.6992V97.0273H113.784V96.793Z" fill="#C19B65"></path><path d="M116.581 96.793C116.737 96.793 116.846 96.7578 116.909 96.6836C116.971 96.6016 117.006 96.5078 117.018 96.4023C117.026 96.2891 117.038 96.1016 117.049 95.8398V94.043C117.049 93.8242 117.057 93.6523 117.081 93.5273L116.534 93.5586V93.2305C116.834 93.2305 117.042 93.2148 117.159 93.1836C117.272 93.1523 117.37 93.0977 117.456 93.0117H117.69C117.698 93.1172 117.709 93.2773 117.721 93.4961C117.897 93.3398 118.096 93.2148 118.315 93.1211C118.542 93.0195 118.772 92.9648 119.002 92.9648C119.448 92.9648 119.776 93.1133 119.987 93.4023C120.206 93.6836 120.315 94.1289 120.315 94.7305V96.1992C120.315 96.4297 120.303 96.6055 120.284 96.7305L120.768 96.6992V97.0273H119.174V96.793C119.319 96.793 119.424 96.7578 119.487 96.6836C119.557 96.6016 119.6 96.5039 119.612 96.3867C119.62 96.2734 119.627 96.0898 119.627 95.8398V94.7305C119.627 94.2852 119.553 93.9453 119.409 93.7148C119.272 93.4883 119.049 93.3711 118.737 93.3711C118.549 93.3711 118.362 93.418 118.174 93.5117C117.995 93.6055 117.846 93.7305 117.721 93.8867C117.729 93.9414 117.737 94.0391 117.737 94.1836L117.721 96.1992C117.721 96.4297 117.709 96.6055 117.69 96.7305L118.19 96.6992V97.0273H116.581V96.793Z" fill="#C19B65"></path></svg> 